<?xml version="1.0" encoding="UTF-8"?>
<svg width="256" height="256" viewBox="0 0 24 24" fill="none" xmlns="http://www.w3.org/2000/svg">
  <!-- 중앙 원 -->
  <circle cx="12" cy="12" r="3" fill="#EC4899"/>
  
  <!-- 8방향 폭죽 광선 -->
  <g stroke="#EC4899" stroke-width="2" stroke-linecap="round">
    <line x1="12" y1="4" x2="12" y2="7"/>
    <line x1="12" y1="17" x2="12" y2="20"/>
    <line x1="4" y1="12" x2="7" y2="12"/>
    <line x1="17" y1="12" x2="20" y2="12"/>
    <line x1="6.34" y1="6.34" x2="8.46" y2="8.46"/>
    <line x1="15.54" y1="15.54" x2="17.66" y2="17.66"/>
    <line x1="6.34" y1="17.66" x2="8.46" y2="15.54"/>
    <line x1="15.54" y1="8.46" x2="17.66" y2="6.34"/>
  </g>

  <!-- 반짝이는 점들 -->
  <g fill="#FDB4D3">
    <circle cx="12" cy="2" r="1"/>
    <circle cx="12" cy="22" r="1"/>
    <circle cx="2" cy="12" r="1"/>
    <circle cx="22" cy="12" r="1"/>
    <circle cx="4" cy="4" r="1"/>
    <circle cx="20" cy="4" r="1"/>
    <circle cx="4" cy="20" r="1"/>
    <circle cx="20" cy="20" r="1"/>
  </g>
</svg>